<svg class="logo__svg" xmlns="http://www.w3.org/2000/svg" viewBox="0 0 112.22 92.97" width="35" height="35"><path class="logo__svg2" d="M79.36 13.62l-15.7 15.71a24.27 24.27 0 1 0 0 34.32l15.7 15.71a46.49 46.49 0 1 1 0-65.74"/><g class="logo__svg3"><path class="logo__svg4" d="M74.56 68.5a36 36 0 0 0 5.51-10L79 58.14a34.71 34.71 0 0 1-5.34 9.66zM61.21 79a35.22 35.22 0 0 0 9.48-6.31l-.77-.82-.16.15a34.56 34.56 0 0 1-9 6zM44.5 82.17h9.86l.22-.05.22-.05.22-.05.22-.06.22-.06.22-.06h.15l-.3-1.09h-.14l-.21.06L55 80l-.21.06h-.22l-.21.05h-9.8zm-16.27-4.9a35.66 35.66 0 0 0 10.61 4.16l.23-1.1a34.48 34.48 0 0 1-10.27-4zM16 65.41A35.51 35.51 0 0 0 23.55 74l.71-.87A34.25 34.25 0 0 1 17 64.81zm-5.28-16.14v5.13l.05.22.05.22.05.22.06.22.06.22.06.22.06.22.06.22.06.21.06.22.06.22.06.22.07.21.07.22.07.21.07.21.07.21.07.21.07.21.07.21.08.21.08.21.08.2.08.21.08.21.08.2.09.21.07.17 1-.44-.07-.17-.08-.2-.08-.2-.08-.2-.08-.2-.08-.2-.08-.2-.07-.2-.07-.21-.07-.2-.07-.21-.07-.21-.07-.21-.07-.21-.07-.21-.06-.21-.06-.21-.06-.21-.06-.21.74-.17v-.21l-.06-.21-.06-.21-.07-.23-.06-.21v-.21l-.05-.21v-5.2zm2.71-16.78a35.74 35.74 0 0 0-2.72 11.06l1.12.09a34.66 34.66 0 0 1 2.63-10.72zm10.15-13.64a36 36 0 0 0-7.5 8.56l1 .6.11-.18a35 35 0 0 1 7.16-8.12zm15.3-7.4l-.47.1a35.43 35.43 0 0 0-10.16 4l.58 1a34.41 34.41 0 0 1 10.26-4zm17 .47a35.9 35.9 0 0 0-11.33-1.22l.06 1.12a34.72 34.72 0 0 1 11 1.19zm14.85 8.28a36.19 36.19 0 0 0-9.48-6.32l-.47 1A35 35 0 0 1 70 21zm9.36 14.19a35.19 35.19 0 0 0-5.5-10l-.88.7A33.9 33.9 0 0 1 79 34.77zm.64 7.38a34.77 34.77 0 0 1-.27 11l1.11.2m0 0a35.92 35.92 0 0 0 .27-11.39l-1.12.15v-1.65l1.11-.21v1.71"/></g><path class="logo__svg5" style="fill: #ffd800;" d="M79.26 13.52l17.25 17.25 15.71 15.71-15.71 15.7-17.25 17.25-15.7-15.7 17.25-17.25-17.25-17.26 15.7-15.7z"/><path class="logo__svg2" d="M46.49 38.73a7.76 7.76 0 1 1-7.76 7.76 7.76 7.76 0 0 1 7.76-7.76"/></svg>