<svg xmlns="http://www.w3.org/2000/svg" width="166" height="34"><path class="logo__text1" d="M155.957.144l2.887 7.5 2.887-7.5h3.8l-3.95 9.929 4.4 11.336h-3.8l-3.342-9.057-3.339 9.056h-3.8l4.4-11.336-3.95-9.929h3.8zm-126.432 0v21.264h-3.646v-9.569H20.41v9.569h-3.646V.144h3.646v9.265h5.469V.144h3.646zm3.608 0h10.482v2.83h-6.836v18.434h-3.646V.144zm12.324 21.418a7.291 7.291 0 0 1-1.58-.152 3.3 3.3 0 0 1-.547-.152v-2.689a1.989 1.989 0 0 0 2.228-.535c1.226-1.8 1.421-15.091 1.418-17.89h11.242v21.264h-3.645V2.974H50.5c-.167 3.677-.192 7.636-.517 10.927-.292 2.947-.633 7.661-4.527 7.661M68.264 5h-.121l-2.066 8.658H70.3zM65.59 16.092l-1.337 5.316h-3.8L65.923.144h4.557l5.469 21.264h-3.8l-1.336-5.316H65.59zm17.4-6.987a3.1 3.1 0 0 0 2.339-.881 3.624 3.624 0 0 0 .851-2.613 3.244 3.244 0 0 0-.851-2.463 3.1 3.1 0 0 0-2.339-.881h-1.368v6.837h1.368zm-1.368 2.278v7.95H83.3a3.876 3.876 0 0 0 2.872-.942 3.9 3.9 0 0 0 .927-2.907 4.425 4.425 0 0 0-.927-3.145 3.84 3.84 0 0 0-2.872-.957h-1.671zm5.47-1.306a5.514 5.514 0 0 1 2.81 2.066 5.985 5.985 0 0 1 .988 3.493 5.518 5.518 0 0 1-1.747 4.426q-1.747 1.549-5.85 1.549a26.9 26.9 0 0 1-2.947-.137 14.213 14.213 0 0 1-2.37-.47V.6a14.214 14.214 0 0 1 2.37-.471 26.927 26.927 0 0 1 2.947-.136q3.435 0 5.059 1.488a4.992 4.992 0 0 1 1.626 3.981 4.936 4.936 0 0 1-.76 2.613 4.815 4.815 0 0 1-2.126 1.884v.122zm6.22-4.452a9.333 9.333 0 0 1 1.321-3.357A4.772 4.772 0 0 1 96.775.506a7.756 7.756 0 0 1 2.917-.516 20.742 20.742 0 0 1 2.887.182 11.016 11.016 0 0 1 1.975.425v2.772c-3.414-.676-7.42-.866-7.732 4.035a45.444 45.444 0 0 0 0 6.743c.312 4.9 4.318 4.711 7.732 4.035v2.772a10.992 10.992 0 0 1-1.975.425 20.782 20.782 0 0 1-2.887.182 7.755 7.755 0 0 1-2.917-.517 4.777 4.777 0 0 1-2.142-1.762 9.34 9.34 0 0 1-1.321-3.356 29.248 29.248 0 0 1 0-10.3M107.3.144h13.065v2.83h-4.71v18.434h-3.645V2.974h-4.71V.144zm19.2 21.264h-3.647V.6a14.083 14.083 0 0 1 2.37-.471 27.27 27.27 0 0 1 2.947-.136 10.886 10.886 0 0 1 3.236.425 5.1 5.1 0 0 1 2.218 1.336 5.557 5.557 0 0 1 1.277 2.355 12.862 12.862 0 0 1 .41 3.478 14.619 14.619 0 0 1-.395 3.66 6.215 6.215 0 0 1-1.185 2.446 4.545 4.545 0 0 1-1.945 1.367 7.839 7.839 0 0 1-2.7.425c-.121 0-.29-.012-.5-.031s-.44-.046-.683-.076l-.744-.091a6.434 6.434 0 0 1-.653-.107v6.23zm1.67-8.756a4.084 4.084 0 0 0 1.5-.258 2.419 2.419 0 0 0 1.093-.881 4.576 4.576 0 0 0 .668-1.67 8.951 8.951 0 0 0 .229-2.259 7.469 7.469 0 0 0-.229-2.067 4.371 4.371 0 0 0-.668-1.626 2.446 2.446 0 0 0-1.093-.866 4.1 4.1 0 0 0-1.5-.258h-1.67v9.884h1.67zM142.633 5h-.122l-2.066 8.658h4.223zm-2.674 11.088l-1.337 5.316h-3.8L140.291.14h4.558l5.469 21.264h-3.8l-1.337-5.316h-5.226zM3.645 21.408H0V.144h3.5v13.974h.152L9.272.144h3.8v21.264H9.57V7.131h-.153zM166 28.037v5.877h-1V31.27h-1.5v2.645h-1v-5.878h1V30.6h1.5v-2.563h1zm-13.1 5.877h-1v-5.877h.956V31.9h.044l1.538-3.863h1.039v5.877h-.956v-3.946h-.041zm-9.82-.546a1.052 1.052 0 0 0 .785-.26 1.488 1.488 0 0 0 0-1.663 1.052 1.052 0 0 0-.785-.261h-.665v-.67h.582a.889.889 0 0 0 .956-1.05.859.859 0 0 0-.241-.646.986.986 0 0 0-.715-.235h-1.081v-.462a3.033 3.033 0 0 1 .52-.117 4.225 4.225 0 0 1 .644-.051 3.1 3.1 0 0 1 .86.105 1.59 1.59 0 0 1 .6.3 1.208 1.208 0 0 1 .345.478 1.689 1.689 0 0 1 .111.625 1.3 1.3 0 0 1-.249.844 1.749 1.749 0 0 1-.623.482v.034a1.331 1.331 0 0 1 .769.546 1.591 1.591 0 0 1 .27.907 1.651 1.651 0 0 1-.478 1.284 2.352 2.352 0 0 1-1.6.437 4.875 4.875 0 0 1-.715-.05 3.08 3.08 0 0 1-.532-.117v-.46h1.247zm-9.471-3.988h-.033l-.566 2.393h1.155zm-.732 3.064l-.365 1.469h-1.039l1.5-5.877h1.246l1.5 5.877h-1.04l-.379-1.468h-1.43zm-10.019-4.408h2.867v.672h-1.87v5.205h-1v-5.876zm-8.682 1.344h-.033l-.566 2.393h1.156zm-.731 3.064l-.366 1.469h-1.039l1.5-5.877h1.247l1.5 5.877h-1.039l-.366-1.469h-1.429zm-11.89-4.408l1.313 3.988h.032l1.313-3.988h1.081l.332 5.877h-.955l-.225-3.979h-.036l-1.072 3.266h-.914l-1.073-3.266h-.033l-.224 3.979h-.957l.333-5.877h1.081zM82 33.914h-1v-5.877h.957V31.9H82l1.539-3.863h1.038v5.877h-.955v-3.946h-.042zm.79-7.052a.867.867 0 0 0 .458-.126 1.733 1.733 0 0 0 .332-.252l.42.416a1.379 1.379 0 0 1-.5.5 1.521 1.521 0 0 1-1.421 0 1.379 1.379 0 0 1-.5-.5l.421-.416a1.775 1.775 0 0 0 .333.252.866.866 0 0 0 .457.126m-10.527 1.091a1.935 1.935 0 0 1 .786.155 1.452 1.452 0 0 1 .6.508 2.673 2.673 0 0 1 .386.932 7.5 7.5 0 0 1 0 2.855 2.673 2.673 0 0 1-.386.932 1.447 1.447 0 0 1-.6.508 2.083 2.083 0 0 1-1.579 0 1.447 1.447 0 0 1-.6-.508 2.636 2.636 0 0 1-.382-.932 7.725 7.725 0 0 1 0-2.855 2.636 2.636 0 0 1 .382-.932 1.452 1.452 0 0 1 .6-.508 1.952 1.952 0 0 1 .793-.155m0 5.458a.592.592 0 0 0 .337-.111.9.9 0 0 0 .291-.386 2.964 2.964 0 0 0 .208-.747 9.038 9.038 0 0 0 0-2.385 2.956 2.956 0 0 0-.208-.747.91.91 0 0 0-.291-.387.577.577 0 0 0-.673 0 .927.927 0 0 0-.291.387 3 3 0 0 0-.208.747 9.038 9.038 0 0 0 0 2.385 3.007 3.007 0 0 0 .208.747.919.919 0 0 0 .291.386.594.594 0 0 0 .336.109m-10.609-2.9a.841.841 0 0 0 .639-.244 1.235 1.235 0 0 0 0-1.444.841.841 0 0 0-.639-.244h-.374v1.931h.375zm-.375.63v2.225h.458a1.053 1.053 0 0 0 .785-.26 1.158 1.158 0 0 0 .254-.831 1.23 1.23 0 0 0-.254-.869 1.042 1.042 0 0 0-.785-.264h-.457zm1.5-.361a1.513 1.513 0 0 1 .769.571 1.671 1.671 0 0 1 .27.966 1.594 1.594 0 0 1-.478 1.251 2.385 2.385 0 0 1-1.6.428 7.4 7.4 0 0 1-.806-.038 3.926 3.926 0 0 1-.649-.13v-5.71a3.937 3.937 0 0 1 .649-.13 7.409 7.409 0 0 1 .806-.037 1.983 1.983 0 0 1 1.383.411 1.478 1.478 0 0 1 .446 1.142 1.383 1.383 0 0 1-.208.722 1.327 1.327 0 0 1-.582.52v.033zm-11.234-2.829a1.935 1.935 0 0 1 .786.155 1.465 1.465 0 0 1 .6.508 2.692 2.692 0 0 1 .386.932 7.5 7.5 0 0 1 0 2.855 2.693 2.693 0 0 1-.386.932 1.459 1.459 0 0 1-.6.508 1.935 1.935 0 0 1-.786.155 1.96 1.96 0 0 1-.794-.155 1.451 1.451 0 0 1-.6-.508 2.655 2.655 0 0 1-.383-.932 7.783 7.783 0 0 1 0-2.855 2.655 2.655 0 0 1 .383-.932 1.456 1.456 0 0 1 .6-.508 1.96 1.96 0 0 1 .794-.155m0 5.458a.6.6 0 0 0 .337-.109.919.919 0 0 0 .291-.386 2.968 2.968 0 0 0 .207-.747 8.926 8.926 0 0 0 0-2.385 2.96 2.96 0 0 0-.207-.747.927.927 0 0 0-.291-.387.578.578 0 0 0-.674 0 .926.926 0 0 0-.29.387 2.956 2.956 0 0 0-.208.747 9.038 9.038 0 0 0 0 2.385 2.964 2.964 0 0 0 .208.747.918.918 0 0 0 .29.386.6.6 0 0 0 .337.109m-10.859-5.374l.79 2.183.79-2.183H43.3l-1.081 2.855 1.206 3.023h-1.039l-.914-2.393-.915 2.393H39.52l1.206-3.023-1.081-2.855h1.039zM31.3 29.38h-.033l-.567 2.393h1.156zm-.732 3.064l-.368 1.47h-1.04l1.5-5.877h1.24l1.5 5.877h-1.04l-.366-1.469h-1.43zm-9.853 1.469h-1v-5.792a3.9 3.9 0 0 1 .648-.13 7.422 7.422 0 0 1 .806-.037 2.943 2.943 0 0 1 .885.117 1.4 1.4 0 0 1 .607.37 1.537 1.537 0 0 1 .349.65 3.582 3.582 0 0 1 .113.961 4.078 4.078 0 0 1-.108 1.012 1.737 1.737 0 0 1-.325.676 1.239 1.239 0 0 1-.532.378 2.11 2.11 0 0 1-.739.118 1.369 1.369 0 0 1-.138-.009c-.058 0-.12-.012-.187-.021l-.2-.025a1.77 1.77 0 0 1-.179-.029v1.763zm.457-2.351a1.1 1.1 0 0 0 .411-.072.652.652 0 0 0 .3-.244 1.263 1.263 0 0 0 .184-.461 3.629 3.629 0 0 0 .062-.735 3.393 3.393 0 0 0-.062-.709 1.219 1.219 0 0 0-.184-.449.663.663 0 0 0-.3-.239 1.1 1.1 0 0 0-.411-.072h-.457v2.981h.457zM9.6 28.037h3.574v.672h-1.288v5.205h-1v-5.205H9.6v-.672zM2.192 34a2.307 2.307 0 0 1-.847-.143 1.345 1.345 0 0 1-.612-.487 2.5 2.5 0 0 1-.369-.928 8.652 8.652 0 0 1 0-2.931 2.59 2.59 0 0 1 .361-.927 1.308 1.308 0 0 1 .586-.487 2.088 2.088 0 0 1 .8-.143 5.556 5.556 0 0 1 .79.051 3 3 0 0 1 .54.117v.462h-1a1.071 1.071 0 0 0-.486.109.952.952 0 0 0-.383.377 2.239 2.239 0 0 0-.249.735 6.453 6.453 0 0 0-.087 1.171 6.228 6.228 0 0 0 .091 1.17 2.222 2.222 0 0 0 .258.735.943.943 0 0 0 .4.378 1.271 1.271 0 0 0 .536.109h1v.462a3.048 3.048 0 0 1-.54.117 5.557 5.557 0 0 1-.79.05"/></svg>