<svg xmlns="http://www.w3.org/2000/svg" width="16" height="14" viewBox="0 0 16 14">
  <path class="header__login-svg-desc1" d="M1650.14,33.5l-5.67-5.956a0.627,0.627,0,0,0-.47-0.208,0.643,0.643,0,0,0-.47.208,0.692,0.692,0,0,0-.19.493V31.19h-4.67a0.627,0.627,0,0,0-.47.208,0.7,0.7,0,0,0-.2.493v4.2a0.7,0.7,0,0,0,.2.493,0.627,0.627,0,0,0,.47.208h4.67v3.153a0.691,0.691,0,0,0,.19.492,0.641,0.641,0,0,0,.47.208,0.626,0.626,0,0,0,.47-0.208l5.67-5.956a0.707,0.707,0,0,0,0-.985h0Zm2.99-5.589a2.837,2.837,0,0,0-2.12-.925h-3.34a0.293,0.293,0,0,0-.21.071,0.4,0.4,0,0,0-.11.214q-0.015.142-.03,0.257c0,0.077,0,.174.01,0.29s0.01,0.19.01,0.219a0.334,0.334,0,0,0,.02.148,0.2,0.2,0,0,0,.07.1c0.04,0.026.06,0.046,0.08,0.06a0.416,0.416,0,0,0,.12.033q0.09,0.011.12,0.011h3.26a1.556,1.556,0,0,1,1.17.515,1.717,1.717,0,0,1,.49,1.237v7.708a1.716,1.716,0,0,1-.49,1.237,1.555,1.555,0,0,1-1.17.515h-3.34a0.293,0.293,0,0,0-.21.071,0.4,0.4,0,0,0-.11.213q-0.015.142-.03,0.257c0,0.077,0,.173.01,0.29s0.01,0.19.01,0.219a0.33,0.33,0,0,0,.1.246,0.3,0.3,0,0,0,.23.1h3.34a2.836,2.836,0,0,0,2.12-.925,3.145,3.145,0,0,0,.88-2.228V30.139A3.146,3.146,0,0,0,1653.13,27.91Z" transform="translate(-1638 -27)"/>
</svg>
