<svg xmlns="http://www.w3.org/2000/svg" width="64" height="49" viewBox="0 0 64 49">
  <defs>
    <style>
      .cls-1 {
        fill: #f5f5f5;
        fill-rule: evenodd;
      }
    </style>
  </defs>
  <path id="Фигура_583" data-name="Фигура 583" class="cls-1" d="M982.525,511.354c5.625-1.961,7.123-.158,8.114,2.13,1.1,2.539-.361,4.758-3.819,6.3,0.477,1.813,1,3.607,1.407,5.427a11.533,11.533,0,0,1,.228,2.69c-0.094,5.38-.242,10.758-0.341,16.136-0.05,2.68-1.249,3.9-3.946,3.913q-2.613.008-5.226,0c-2.514-.009-3.7-1.13-3.863-3.687-0.052-.837-0.008-1.679-0.008-2.251-5.424.2-10.625,0.512-15.828,0.543-4.671.027-9.345-.24-14.016-0.416a13.108,13.108,0,0,1-2.2-.409c-1.009-.217-1.408.115-1.47,1.221a8.415,8.415,0,0,1-.748,3.689,3.815,3.815,0,0,1-2.654,1.254,51.532,51.532,0,0,1-5.519.057c-2.7-.008-3.925-1-3.994-3.719-0.15-5.884-.246-11.776-0.1-17.658,0.047-1.888.949-3.748,1.384-5.638a1.191,1.191,0,0,0-.426-1.029,4.781,4.781,0,0,1-2.307-5.738c0.395-1.6,2.7-3.049,4.569-2.923,1,0.067,2.252.436,2.953-.02,0.733-.477.966-1.768,1.373-2.722,0.718-1.686,1.314-3.434,2.144-5.06a3.506,3.506,0,0,1,1.775-1.607,55.86,55.86,0,0,1,27.775-1.937c2.919,0.484,5.785,1.291,8.7,1.8a3.374,3.374,0,0,1,2.637,2.291C980.234,506.466,981.4,508.919,982.525,511.354Zm-0.349,6.422a43.527,43.527,0,0,0,4.408-1.55,2.025,2.025,0,0,0,.913-1.65,1.173,1.173,0,0,0-1.7-.921c-0.879.312-1.8,0.513-2.663,0.856a41.2,41.2,0,0,1-14.229,2.585c-7.26.193-14.536,0.251-21.79-.03-4.116-.159-8.206-1.08-12.3-1.724a26.667,26.667,0,0,1-2.657-.85c-0.933-.252-1.835.034-1.913,1.04a2.2,2.2,0,0,0,1.131,1.6,25.634,25.634,0,0,0,3.587,1.2c-0.844,1.658-1.757,3.173-2.412,4.8-1.438,3.566-.993,7.3-0.7,11a6.68,6.68,0,0,0,.611,2.459,2.375,2.375,0,0,0,1.463,1.188c1.614,0.248,3.265.243,4.9,0.372,5.795,0.455,11.582,1.143,17.385,1.321,4.657,0.142,9.336-.261,14-0.546,4.063-.247,8.116-0.659,12.172-1.016a2.164,2.164,0,0,0,2.189-2.011c0.274-2.339.564-4.682,0.7-7.031a11.02,11.02,0,0,0-.3-3.856C984.216,522.616,983.18,520.323,982.176,517.776Zm-2.872-5.213a13.178,13.178,0,0,0-.46-1.56c-0.774-1.723-1.548-3.448-2.4-5.132a2.572,2.572,0,0,0-1.163-1.261,21.134,21.134,0,0,0-4.008-1.012c-2.993-.423-6-0.8-9.009-1.048a51.2,51.2,0,0,0-20.3,1.971,2.75,2.75,0,0,0-1.346,1.386c-0.879,1.836-1.567,3.767-2.461,5.6-0.539,1.1-.165,1.5.848,1.6,2.026,0.2,4.053.408,6.084,0.534C956.42,514.334,967.737,514.573,979.3,512.563Zm-47.639,28.219c0,0.986.033,1.838-.009,2.685a0.993,0.993,0,0,0,1.116,1.222c1.591,0,3.182-.039,4.773-0.021,1.02,0.011.959-.748,0.921-1.36-0.044-.7.507-1.774-0.76-1.933C935.746,541.13,933.773,540.984,931.665,540.782Zm53.109-.019-6.421.789c-0.314,3.149-.314,3.149,2.577,3.147h0.746c3.569,0,3.569,0,3.231-3.672A1.343,1.343,0,0,0,984.774,540.763ZM970.638,531.3v2.991H946.507c-0.032-.453-0.035-0.895-0.1-1.328-0.2-1.338.242-1.829,1.678-1.8,4.722,0.1,9.447.036,14.171,0.036,2.337,0,4.674,0,7.011,0C969.7,531.2,970.135,531.259,970.638,531.3Zm0.027-6.259v2.885H946.5v-2.885h24.163Zm7.514,8.445c-2.7.454-5.093-2.562-4.959-4.868a4.89,4.89,0,1,1,9.778,0C983.01,531.649,980.5,533.877,978.179,533.482Zm0.356-6.606c-1.408.232-2.105,0.608-2.1,1.771a1.507,1.507,0,0,0,1.756,1.678,2.446,2.446,0,0,0,1.574-1.727C979.81,528,978.89,527.332,978.535,526.876Zm-39.772,6.606c-2.477.449-4.908-2.278-4.93-4.766a5.25,5.25,0,0,1,4.983-5.143,5.173,5.173,0,0,1,4.842,5.114C943.593,531.405,941.32,533.886,938.763,533.482Zm-2.007-5.156c0,0.242,0,.483,0,0.724,0.652,0.458,1.389,1.368,1.933,1.261a2.658,2.658,0,0,0,1.792-1.693,1.488,1.488,0,0,0-1.822-1.6A5.925,5.925,0,0,0,936.756,528.326Z" transform="translate(-927 -499)"/>
</svg>
