<svg xmlns="http://www.w3.org/2000/svg" width="53" height="53" viewBox="0 0 53 53">
  <defs>
    <style>
      .cls-1 {
        fill: #f5f5f5;
        fill-rule: evenodd;
      }
    </style>
  </defs>
  <path id="Фигура_585" data-name="Фигура 585" class="cls-1" d="M495.1,497.133c0.041,0.707.11,1.343,0.11,1.978,0,4.585.008,9.169-.055,13.753a3.56,3.56,0,0,1-.728,1.337,5.574,5.574,0,0,1-1.4-.991,2.51,2.51,0,0,1-.1-1.31c0-4.136,0-8.272,0-12.517H458.331v48.18c0.542,0.024,1.059.067,1.576,0.068,6.151,0,12.3-.01,18.451.026a3.414,3.414,0,0,1,1.712.534,1.191,1.191,0,0,1,.158,1.13,1.43,1.43,0,0,1-1.055.624c-2.635.052-5.271,0.028-7.907,0.028-4.491,0-8.983-.042-13.472.025-1.382.021-1.794-.632-1.794-1.865q0-24.684,0-49.369c0-.972.173-1.764,1.41-1.763q18.525,0.023,37.049.019A4.833,4.833,0,0,1,495.1,497.133Zm9.347,33.758,3.451,1.174a0.5,0.5,0,0,1,.14.04c1.577,1.222.722,2.956,0.781,4.449a2.974,2.974,0,0,1-1.276,1.681,5.7,5.7,0,0,1-1.589.606c-1.305.5-1.5,1.064-.838,2.276,0.346,0.635.663,1.289,0.958,1.95a0.934,0.934,0,0,1,.091.7c-1.12,1.189-2.242,2.385-3.463,3.459a2.178,2.178,0,0,1-1.349-.323,6.967,6.967,0,0,0-1.971-.841,1.9,1.9,0,0,0-1.539.924c-0.907,2.974-.856,2.99-3.907,2.99-2.507,0-2.507,0-3.185-2.512-0.422-1.563-.915-1.918-2.388-1.129-1.919,1.029-3.272,1.024-4.853-.823a3.011,3.011,0,0,1-.568-3.849c1.113-2.381.9-2.78-1.66-3.312a1.954,1.954,0,0,1-1.807-2.219c-0.042-3.623-.066-3.622,3.321-4.839,0.269-.1.534-0.207,1.112-0.431a28.419,28.419,0,0,0-1.3-3.264,1.473,1.473,0,0,1,.239-2.069,19.761,19.761,0,0,1,2.008-2.066,3.324,3.324,0,0,1,1.893-.29,2.847,2.847,0,0,1,1.018.541c1.928,1.058,2.386.808,3.04-1.364,0.663-2.2.987-2.333,2.692-2.016a1.893,1.893,0,0,0,.292,0c3,0.055,2.954.075,4.018,2.9a3.062,3.062,0,0,0,1.568.978,1.416,1.416,0,0,0,.655-0.259c2.955-1.128,4.127-.742,5.86,2.045a1.745,1.745,0,0,1,.051,1.315C505.522,528.478,505,529.6,504.445,530.891Zm-22.412,3.051c-0.268,1.436-.285,2.478,1.515,2.746a4.418,4.418,0,0,1,1.96,1.584c1.354,1.453.209,2.785-.211,4.193a2.292,2.292,0,0,0,.412,1.754c0.169,0.226.964-.023,1.473-0.081,0.977-.111,1.6-1.046,2.9-0.721,1.884,0.473,2.245,1.885,2.941,3.256a1.842,1.842,0,0,0,1.317.886,1.656,1.656,0,0,0,1.112-.953c0.608-1.374.964-2.73,2.8-3.174,1.362-.329,2.075.634,3.118,0.824a1.824,1.824,0,0,0,1.346-.1,2.238,2.238,0,0,0,.484-1.469,2.3,2.3,0,0,0-.525-1.186,2.83,2.83,0,0,1-.094-2.948,3.368,3.368,0,0,1,2.624-2.017,1.416,1.416,0,0,0,1.409-1.514c0.023-1.087-.625-1.061-1.33-1.333a6.317,6.317,0,0,1-2.229-1.486,2.723,2.723,0,0,1-.133-3.848,1.6,1.6,0,0,0,0-2.268c-0.767-.723-1.339-0.2-2.062.129a5.889,5.889,0,0,1-2.42.471c-1.937-.019-2.415-1.587-2.989-3.083a1.966,1.966,0,0,0-1.107-.986,1.031,1.031,0,0,0-1.391.86,6.073,6.073,0,0,1-1.648,2.75,3.246,3.246,0,0,1-4.075-.22,1.7,1.7,0,0,0-1.631-.046,2.323,2.323,0,0,0-.372,1.655,2.713,2.713,0,0,0,.55,1.341,2.391,2.391,0,0,1,.092,2.48C485.2,533.293,483.684,533.575,482.033,533.942Zm-6.375-20.623c-4.24,0-8.479.007-12.719,0-1.83,0-2.032-.217-2.038-2.028q-0.012-3.659,0-7.318c0.006-1.779.379-2.148,2.173-2.149q12.719-.006,25.437,0c1.692,0,1.941.258,1.946,1.977,0.007,2.439,0,4.878,0,7.318,0,2.194,0,2.2-2.226,2.2Q481.945,513.326,475.658,513.319Zm12.416-9.056h-24.79c0,1.8.075,3.53-.025,5.254-0.073,1.26.358,1.6,1.562,1.593,7.36-.05,14.719-0.023,22.079-0.029,0.373,0,.745-0.06,1.174-0.1v-6.721Zm-14.012,33.155c0,1.692-.043,3.386.015,5.076a1.408,1.408,0,0,1-1.525,1.694c-3.361.034-6.726,0.084-10.081-.059a2.2,2.2,0,0,1-1.5-1.539c-0.138-3.478-.138-6.968,0-10.446a2.2,2.2,0,0,1,1.539-1.49c3.356-.14,6.721-0.093,10.082-0.054a1.362,1.362,0,0,1,1.476,1.592C474.031,533.933,474.062,535.676,474.062,537.418Zm-2.382-4.39h-8.394c0,2.739-.024,5.369.034,8a1.129,1.129,0,0,0,.73.821c2.52,0.062,5.041.037,7.63,0.037v-8.855Zm2.382-10.4c0,1.742-.018,3.485.006,5.228a1.244,1.244,0,0,1-1.4,1.47q-5.118,0-10.235,0a1.351,1.351,0,0,1-1.492-1.456q-0.06-5.227-.023-10.455a1.4,1.4,0,0,1,1.567-1.543q5.045,0.01,10.088,0a1.3,1.3,0,0,1,1.5,1.533C474.039,519.141,474.062,520.884,474.062,522.627Zm-2.392-4.27h-8.287v8.477h8.287v-8.477Zm16.47-.007h-8.383c0,2.1-.01,4.218,0,6.333,0.006,1.038-.313,2.186.987,2.8a1.489,1.489,0,0,1,.1,1.1,5.982,5.982,0,0,1-2.359.659,1.709,1.709,0,0,1-1.047-1.278c-0.086-3.585-.069-7.174-0.027-10.76a1.292,1.292,0,0,1,1.547-1.349c3.316,0.041,6.634.03,9.951,0.008a1.361,1.361,0,0,1,1.554,1.641c-0.024.8-.025,1.6,0,2.392a1.1,1.1,0,0,1-1.165,1.35c-0.932.026-1.139-.588-1.159-1.36C488.13,519.4,488.14,518.909,488.14,518.35Zm-0.584,16.76a6.652,6.652,0,1,1,6.621,6.788A6.879,6.879,0,0,1,487.556,535.11Zm2.323-.045c-0.247,2.088,2.035,4.457,4.234,4.457a4.534,4.534,0,0,0,4.445-4.365,4.427,4.427,0,0,0-4.365-4.412A4.354,4.354,0,0,0,489.879,535.065Z" transform="translate(-456 -497)"/>
</svg>
