<svg xmlns="http://www.w3.org/2000/svg" width="55" height="63" viewBox="0 0 55 63">
  <defs>
    <style>
      .cls-1 {
        fill: #f5f5f5;
        fill-rule: evenodd;
      }
    </style>
  </defs>
  <path id="Фигура_586" data-name="Фигура 586" class="cls-1" d="M1419.1,494.513a4.424,4.424,0,0,1,3.08-1.53,7.583,7.583,0,0,1,2.78.618c0.8,0.259,1.6.513,2.39,0.78,0.56,0.186,1.1.4,1.66,0.585,0.8,0.27,1.61.521,2.41,0.791,0.54,0.183,1.07.395,1.61,0.578,0.81,0.271,1.62.525,2.42,0.792,0.49,0.162.97,0.34,1.46,0.5,1.11,0.371,2.23.72,3.34,1.111a21.728,21.728,0,0,1,2.26.9,3.945,3.945,0,0,1,1.92,2.259c0.26,0.653.54,1.3,0.81,1.947,0.28,0.7.55,1.4,0.84,2.09,0.35,0.819.72,1.628,1.06,2.448,0.27,0.659.51,1.331,0.78,1.993,0.17,0.41.36,0.809,0.53,1.219,0.22,0.516.41,1.041,0.62,1.558,0.25,0.6.51,1.2,0.77,1.8,0.19,0.466.4,0.929,0.6,1.4l1.29,3.1c0.27,0.641.52,1.288,0.78,1.929,0.28,0.672.56,1.341,0.84,2.012,0.26,0.632.51,1.268,0.78,1.9,0.27,0.647.55,1.288,0.82,1.936,0.25,0.6.47,1.2,0.72,1.8,0.51,1.247,1.03,2.488,1.54,3.735,0.29,0.695.55,1.4,0.84,2.094,0.24,0.591.53,1.165,0.74,1.766a4.012,4.012,0,0,1,.04,2.424,3.847,3.847,0,0,1-1.72,2.351,12.385,12.385,0,0,1-1.64.789c-0.85.365-1.71,0.705-2.56,1.052-0.67.271-1.34,0.531-2.01,0.8-0.61.25-1.21,0.516-1.81,0.769-0.67.277-1.34,0.542-2.01,0.821-1.05.441-2.1,0.9-3.15,1.332-0.63.257-1.27,0.479-1.9,0.732s-1.23.527-1.86,0.783c-0.87.359-1.75,0.7-2.63,1.067-0.82.34-1.62,0.706-2.44,1.045s-1.67.66-2.5,1c-0.79.326-1.59,0.664-2.38,1a4.944,4.944,0,0,1-2.31.386,3.923,3.923,0,0,1-3.1-1.794,9.36,9.36,0,0,1-.8-1.636c-0.29-.639-0.56-1.287-0.83-1.934-0.26-.631-0.51-1.265-0.77-1.9-0.24-.619-0.49-1.241-0.74-1.857-0.28-.66-0.56-1.314-0.84-1.972-0.3-.71-0.6-1.42-0.89-2.133-0.31-.758-0.61-1.522-0.92-2.28-0.27-.661-0.56-1.315-0.83-1.977-0.3-.713-0.57-1.435-0.86-2.145-0.43-1.012-.87-2.014-1.3-3.025-0.33-.781-0.64-1.571-0.96-2.355-0.42-1.027-.85-2.051-1.27-3.078-0.29-.686-0.55-1.378-0.84-2.062-0.34-.819-0.71-1.629-1.05-2.449-0.27-.662-0.52-1.335-0.79-2-0.16-.4-0.35-0.789-0.5-1.191a17.582,17.582,0,0,1-.8-2.186,3.844,3.844,0,0,1,.31-2.638c0.49-1.007.97-2.021,1.46-3.025,0.57-1.153,1.17-2.3,1.74-3.447,0.43-.859.85-1.724,1.28-2.586,0.15-.305.31-0.608,0.46-0.913,0.07-.15.07-0.228-0.12-0.344-0.83-.491-1.66-1.008-2.45-1.553a18.667,18.667,0,0,1-1.98-1.479,24.958,24.958,0,0,1-2.2-2.235,4.774,4.774,0,0,1-1.32-3.816,3.333,3.333,0,0,1,1.72-2.5,4.367,4.367,0,0,1,3.4-.258,11.863,11.863,0,0,1,3.37,1.578,26.594,26.594,0,0,1,3.4,2.557C1418.95,494.412,1419.03,494.458,1419.1,494.513Zm0.63,3.824c-0.37.748-.69,1.405-1.02,2.059-0.43.863-.86,1.725-1.3,2.587-0.41.816-.82,1.629-1.23,2.448-0.57,1.166-1.13,2.339-1.7,3.5q-0.645,1.29-1.29,2.571c-0.29.565-.62,1.11-0.87,1.69a1.65,1.65,0,0,0-.14,1.583,6.33,6.33,0,0,1,.32.75c0.25,0.642.48,1.289,0.74,1.927,0.36,0.866.73,1.725,1.1,2.588,0.19,0.452.38,0.906,0.56,1.36,0.28,0.671.55,1.345,0.83,2.016,0.26,0.631.53,1.259,0.79,1.887s0.55,1.278.81,1.922c0.25,0.628.48,1.268,0.73,1.894,0.28,0.676.6,1.337,0.88,2.013,0.25,0.621.47,1.258,0.73,1.878,0.43,1.049.89,2.09,1.34,3.136,0.27,0.645.54,1.294,0.81,1.94,0.26,0.613.53,1.222,0.77,1.839,0.27,0.65.5,1.312,0.76,1.961s0.57,1.292.84,1.944c0.34,0.821.65,1.651,0.99,2.47,0.44,1.06.91,2.109,1.35,3.17a1.912,1.912,0,0,0,1.37,1.187,2.467,2.467,0,0,0,1.59-.294c0.64-.283,1.28-0.562,1.93-0.823s1.3-.476,1.94-0.74c1.04-.431,2.07-0.892,3.12-1.327,0.61-.256,1.23-0.478,1.85-0.729,0.89-.365,1.77-0.745,2.66-1.114,0.41-.168.82-0.319,1.23-0.487,0.83-.346,1.67-0.7,2.5-1.047,0.66-.272,1.33-0.528,1.99-0.8,1.03-.434,2.06-0.886,3.1-1.318,0.61-.253,1.23-0.472,1.84-0.726,0.8-.337,1.6-0.7,2.41-1.041,0.55-.24,1.11-0.477,1.67-0.707a1.947,1.947,0,0,0,.91-1.864,8.555,8.555,0,0,0-.48-1.378c-0.43-1.018-.89-2.019-1.32-3.039-0.41-1-.78-2.032-1.2-3.036-0.51-1.214-1.06-2.41-1.57-3.623-0.42-1-.8-2.022-1.21-3.03-0.28-.695-0.58-1.382-0.87-2.076-0.32-.775-0.62-1.558-0.94-2.33-0.44-1.033-.91-2.054-1.34-3.09-0.41-1.007-.8-2.029-1.21-3.039-0.28-.7-0.59-1.383-0.88-2.079-0.25-.618-0.47-1.25-0.73-1.866-0.27-.654-0.59-1.291-0.87-1.946-0.26-.626-0.49-1.27-0.75-1.9-0.35-.859-0.73-1.709-1.09-2.567a1.686,1.686,0,0,0-.87-1c-0.6-.247-1.21-0.457-1.83-0.67-0.88-.306-1.77-0.606-2.65-0.9-0.56-.185-1.14-0.338-1.7-0.53-0.8-.278-1.6-0.581-2.41-0.868-0.37-.133-0.75-0.254-1.12-0.379l-2.18-.722c-0.57-.186-1.14-0.358-1.71-0.553-0.76-.265-1.53-0.547-2.29-0.819-0.65-.227-1.29-0.458-1.93-0.674a4.09,4.09,0,0,0-.89-0.235,1.958,1.958,0,0,0-1.79.87c0.17,0.166.35,0.323,0.51,0.5,0.89,0.99,1.8,1.958,2.63,2.992a1.291,1.291,0,0,0,1.37.7,4.253,4.253,0,0,1,3.11.864,4.569,4.569,0,0,1,1.92,2.787,4.847,4.847,0,0,1-.13,2.637,4.773,4.773,0,0,1-3.78,3.2,4.836,4.836,0,0,1-1.92-.1,4.642,4.642,0,0,1-2.72-1.835,4.726,4.726,0,0,1,.39-6.062c0.17-.158.35-0.322,0.05-0.563a4.622,4.622,0,0,1-.52-0.621C1421.07,499.916,1420.42,499.155,1419.73,498.337Zm-3.55,1.834c0.22-.421.38-0.728,0.53-1.036,0.28-.535.52-1.085,0.82-1.6,0.46-.792.45-0.941-0.24-1.491s-1.35-1.151-2.08-1.642a25.6,25.6,0,0,0-2.54-1.471,12.075,12.075,0,0,0-1.59-.6,1.472,1.472,0,0,0-1.66.742,1.439,1.439,0,0,0,.21,1.448,8.122,8.122,0,0,0,2.47,2.794C1413.39,498.338,1414.8,499.214,1416.18,500.171Zm9.99,2.631a1.08,1.08,0,0,1-.35,1.52c-0.92.575-1.52-.007-2-0.771a2.384,2.384,0,0,0,.02,3.184,2.463,2.463,0,0,0,4.27-2.063A2.169,2.169,0,0,0,1426.17,502.8Zm-14.7,45.245c1.13-.115,2.26-0.241,3.4-0.343,1.03-.093,2.07-0.15,3.1-0.239,0.72-.062,1.45-0.136,2.18-0.231a1.272,1.272,0,0,1,1.23.937,1.22,1.22,0,0,1-.69,1.287,2.422,2.422,0,0,1-.7.107c-0.57.067-1.13,0.131-1.7,0.195-0.65.073-1.3,0.151-1.96,0.213-0.64.062-1.29,0.1-1.93,0.161-0.96.094-1.91,0.255-2.87,0.293a4.007,4.007,0,0,1-3.15-1.255,4.249,4.249,0,0,1-1.18-2.977c-0.01-.588-0.14-1.174-0.2-1.763-0.04-.361-0.04-0.726-0.07-1.088-0.03-.428-0.07-0.856-0.11-1.283-0.07-.7-0.15-1.407-0.22-2.11-0.1-1-.2-2.006-0.29-3.009-0.06-.615-0.11-1.231-0.17-1.846-0.09-.954-0.19-1.907-0.28-2.86-0.07-.682-0.12-1.364-0.18-2.046-0.09-1.005-.19-2.009-0.29-3.013-0.06-.6-0.11-1.206-0.17-1.809-0.06-.662-0.14-1.324-0.21-1.986l-0.09-1.04c-0.08-1.059-.14-2.119-0.24-3.176-0.1-1.081-.24-2.158-0.35-3.237-0.04-.326-0.07-0.653-0.1-0.98-0.08-.9-0.19-1.806-0.23-2.711a3.97,3.97,0,0,1,1.21-2.987c0.82-.862,1.65-1.726,2.47-2.59,0.74-.778,1.48-1.557,2.23-2.335,0.41-.435.81-0.884,1.24-1.3a1.093,1.093,0,0,1,1.26-.177,1.062,1.062,0,0,1,.68,1.006,1.57,1.57,0,0,1-.43.957c-1.42,1.552-2.89,3.072-4.33,4.605-0.56.6-1.16,1.171-1.66,1.818a1.845,1.845,0,0,0-.28,1.069,16.4,16.4,0,0,0,.14,1.848c0.09,0.992.2,1.983,0.3,2.974,0.05,0.388.11,0.775,0.15,1.164,0.06,0.7.1,1.413,0.16,2.118,0.09,0.964.2,1.927,0.3,2.891,0.06,0.638.1,1.279,0.16,1.918,0.09,0.941.2,1.881,0.29,2.821,0.06,0.6.11,1.208,0.17,1.811,0.1,1.083.21,2.165,0.3,3.249,0.09,1.043.14,2.089,0.24,3.131,0.1,1.016.23,2.028,0.34,3.042,0.05,0.4.08,0.8,0.12,1.206l0.36,3.854c0.04,0.428.06,0.857,0.1,1.284a10,10,0,0,0,.17,1.346,1.513,1.513,0,0,0,1.32,1.042c0.15-.009.3,0,0.46,0v0.044Zm18.85-9.44a1.067,1.067,0,0,1-1.03-1.506c0.34-.921.74-1.824,1.11-2.736,0.24-.606.48-1.215,0.73-1.818,0.45-1.066.91-2.125,1.35-3.192,0.33-.786.63-1.583,0.96-2.368,0.44-1.049.9-2.086,1.34-3.136,0.26-.64.48-1.3,0.75-1.94,0.33-.814.69-1.616,1.03-2.427,0.27-.659.52-1.328,0.8-1.988a11.277,11.277,0,0,1,.77-1.711,1.085,1.085,0,0,1,1.55-.388,1.183,1.183,0,0,1,.53,1.448l-1.8,4.346c-0.45,1.106-.92,2.209-1.38,3.315-0.44,1.079-.88,2.163-1.34,3.24-0.35.82-.72,1.629-1.06,2.451-0.27.637-.5,1.289-0.76,1.929s-0.53,1.243-.8,1.867-0.52,1.279-.79,1.916c-0.31.741-.6,1.493-0.96,2.215A0.967,0.967,0,0,1,1430.32,538.607Zm-7.7-14.879a4.279,4.279,0,0,1,4.31-4.344,4.332,4.332,0,0,1,4.35,3.875,4.1,4.1,0,0,1-.94,3.155,4.266,4.266,0,0,1-3.43,1.65A4.312,4.312,0,0,1,1422.62,523.728Zm4.3-1.931a1.9,1.9,0,0,0-1.99,1.942,1.986,1.986,0,0,0,1.93,1.965,2.023,2.023,0,0,0,2.07-1.972A1.936,1.936,0,0,0,1426.92,521.8Zm15.53,12.682a4.323,4.323,0,1,1,4.4-4.294A4.264,4.264,0,0,1,1442.45,534.479Zm2.02-4.285a2,2,0,0,0-1.8-2,2.032,2.032,0,0,0-2.12,1.813,2,2,0,0,0,1.95,2.174A1.949,1.949,0,0,0,1444.47,530.194Z" transform="translate(-1404 -490)"/>
</svg>
