<svg xmlns="http://www.w3.org/2000/svg" xmlns:xlink="http://www.w3.org/1999/xlink" viewBox="0 0 112.22 92.97"><defs><style>.cls-1{fill:none;}.cls-2{fill:#fff;}.cls-2,.cls-5{fill-rule:evenodd;}.cls-3{clip-path:url(#clip-path);}.cls-4{fill:#31597e;}.cls-5{fill:#feca04;}</style><clipPath id="clip-path" transform="translate(0)"><path class="cls-1" d="M13.62,13.62A46.49,46.49,0,0,0,79.36,79.36L63.65,63.65a24.27,24.27,0,1,1,0-34.32h0L79.37,13.62h0a46.49,46.49,0,0,0-65.74,0"/></clipPath></defs><title>Asset 1</title><g id="Layer_2"><g id="Слой_1" ><path class="cls-2" d="M79.36,13.62h0L63.66,29.33h0a24.27,24.27,0,1,0,0,34.32L79.36,79.36a46.49,46.49,0,1,1,0-65.74" transform="translate(0)"/><g class="cls-3"><path class="cls-4" d="M74.56,68.5a36,36,0,0,0,5.51-10L79,58.14a34.71,34.71,0,0,1-5.34,9.66ZM61.21,79a35.22,35.22,0,0,0,9.48-6.31l-.77-.82-.16.15a34.56,34.56,0,0,1-9,6ZM44.5,82.17h4.19l.22,0,.23,0,.23,0,.23,0,.23,0,.23,0,.23,0,.23,0,.23,0,.23,0,.23,0,.23,0,.23,0,.23,0,.23,0,.23,0,.23,0,.22,0,.23,0,.22,0,.22,0,.22,0,.22,0,.22,0,.22,0,.22-.05.22-.05.22-.05.22-.06.22-.06.22-.06.15,0-.3-1.09-.14,0-.21.06L55,80l-.21.06-.22,0-.21.05-.21,0-.22,0-.21,0-.22,0-.22,0-.22,0-.22,0-.22,0-.22,0-.22,0-.22,0-.22,0-.22,0-.22,0-.22,0-.22,0-.22,0-.22,0-.22,0-.22,0-.22,0-.22,0-.22,0-.22,0-.22,0-.22,0H44.56ZM28.23,77.27a35.66,35.66,0,0,0,10.61,4.16l.23-1.1a34.48,34.48,0,0,1-10.27-4ZM16,65.41A35.51,35.51,0,0,0,23.55,74l.71-.87A34.25,34.25,0,0,1,17,64.81ZM10.72,49.27v.15l0,.23,0,.23,0,.23,0,.23,0,.23,0,.23,0,.23,0,.23,0,.23,0,.23,0,.23,0,.23,0,.23,0,.22,0,.22,0,.23,0,.22,0,.22,0,.22,0,.22,0,.22,0,.22.05.22.05.22.05.22.06.22.06.22.06.22.06.22.06.22.06.21.06.22.06.22.06.22.07.21.07.22.07.21.07.21.07.21.07.21.07.21.07.21.08.21.08.21.08.2.08.21.08.21.08.2.09.21.07.17,1-.44-.07-.17-.08-.2-.08-.2-.08-.2-.08-.2-.08-.2-.08-.2-.07-.2-.07-.21-.07-.2-.07-.21-.07-.21-.07-.21-.07-.21-.07-.21-.06-.21-.06-.21-.06-.21-.06-.21L13,55.86,13,55.65l-.06-.21-.06-.21L12.81,55l-.06-.21,0-.21-.05-.21,0-.22,0-.21,0-.22,0-.22,0-.22,0-.22,0-.22,0-.22,0-.22,0-.22,0-.22,0-.22,0-.22,0-.22,0-.22,0-.22,0-.22,0-.22,0-.22,0-.22,0-.22,0-.22,0-.22v-.15Zm2.71-16.78a35.74,35.74,0,0,0-2.72,11.06l1.12.09a34.66,34.66,0,0,1,2.63-10.72ZM23.58,18.85a36,36,0,0,0-7.5,8.56h0l1,.6.11-.18a35,35,0,0,1,7.16-8.12Zm15.3-7.4-.47.1a35.43,35.43,0,0,0-10.16,4l.58,1a34.41,34.41,0,0,1,10.26-4h0Zm17,.47A35.9,35.9,0,0,0,44.55,10.7l.06,1.12a34.72,34.72,0,0,1,11,1.19ZM70.73,20.2a36.19,36.19,0,0,0-9.48-6.32l-.47,1A35,35,0,0,1,70,21Zm9.36,14.19a35.19,35.19,0,0,0-5.5-10l-.88.7A33.9,33.9,0,0,1,79,34.77Zm.64,7.38a34.77,34.77,0,0,1-.27,11l1.11.2m0,0a35.92,35.92,0,0,0,.27-11.39l-1.12.15,0-.22,0-.22,0-.22,0-.22,0-.22,0-.22,0-.22,0-.11,1.11-.21,0,.12,0,.22,0,.23,0,.23,0,.23,0,.23,0,.22,0,.23" transform="translate(0)"/></g><polygon class="cls-5" points="79.26 13.52 96.51 30.77 112.22 46.48 96.51 62.18 79.26 79.43 63.56 63.73 80.81 46.48 63.56 29.22 79.26 13.52"/><path class="cls-2" d="M46.49,38.73a7.76,7.76,0,1,1-7.76,7.76,7.76,7.76,0,0,1,7.76-7.76" transform="translate(0)"/></g></g></svg>