<svg class="logo__text" xmlns="http://www.w3.org/2000/svg" width="166" height="34" viewBox="0 0 166 34">
  <path id="logo__text1" class="logo__text1" d="M463.957,17.144l2.887,7.5,2.887-7.5h3.8l-3.95,9.929,4.4,11.336h-3.8l-3.342-9.057L463.5,38.408h-3.8l4.4-11.336-3.95-9.929h3.8Zm-126.432,0V38.408h-3.646V28.839H328.41v9.569h-3.646V17.144h3.646v9.265h5.469V17.144h3.646Zm3.608,0h10.482v2.83h-6.836V38.408h-3.646V17.144Zm12.324,21.418a7.291,7.291,0,0,1-1.58-.152,3.3,3.3,0,0,1-.547-0.152V35.569a1.989,1.989,0,0,0,2.228-.535c1.226-1.8,1.421-15.091,1.418-17.89h11.242V38.408h-3.645V19.974H358.5c-0.167,3.677-.192,7.636-0.517,10.927-0.292,2.947-.633,7.661-4.527,7.661M376.264,22h-0.121l-2.066,8.658H378.3ZM373.59,33.092l-1.337,5.316h-3.8l5.47-21.264h4.557l5.469,21.264h-3.8l-1.336-5.316H373.59Zm17.4-6.987a3.1,3.1,0,0,0,2.339-.881,3.624,3.624,0,0,0,.851-2.613,3.244,3.244,0,0,0-.851-2.463,3.1,3.1,0,0,0-2.339-.881h-1.368v6.837h1.368Zm-1.368,2.278v7.95H391.3a3.876,3.876,0,0,0,2.872-.942,3.9,3.9,0,0,0,.927-2.907,4.425,4.425,0,0,0-.927-3.145,3.84,3.84,0,0,0-2.872-.957h-1.671Zm5.47-1.306a5.514,5.514,0,0,1,2.81,2.066,5.985,5.985,0,0,1,.988,3.493,5.518,5.518,0,0,1-1.747,4.426q-1.747,1.549-5.85,1.549a26.9,26.9,0,0,1-2.947-.137,14.213,14.213,0,0,1-2.37-.47V17.6a14.214,14.214,0,0,1,2.37-.471,26.927,26.927,0,0,1,2.947-.136q3.435,0,5.059,1.488a4.992,4.992,0,0,1,1.626,3.981,4.936,4.936,0,0,1-.76,2.613,4.815,4.815,0,0,1-2.126,1.884v0.122Zm6.22-4.452a9.333,9.333,0,0,1,1.321-3.357,4.772,4.772,0,0,1,2.142-1.762,7.756,7.756,0,0,1,2.917-.516,20.742,20.742,0,0,1,2.887.182,11.016,11.016,0,0,1,1.975.425v2.772c-3.414-.676-7.42-0.866-7.732,4.035a45.444,45.444,0,0,0,0,6.743c0.312,4.9,4.318,4.711,7.732,4.035v2.772a10.992,10.992,0,0,1-1.975.425,20.782,20.782,0,0,1-2.887.182,7.755,7.755,0,0,1-2.917-.517,4.777,4.777,0,0,1-2.142-1.762,9.34,9.34,0,0,1-1.321-3.356,29.248,29.248,0,0,1,0-10.3M415.3,17.144h13.065v2.83h-4.71V38.408h-3.645V19.974H415.3v-2.83Zm19.2,21.264h-3.647V17.6a14.083,14.083,0,0,1,2.37-.471,27.27,27.27,0,0,1,2.947-.136,10.886,10.886,0,0,1,3.236.425,5.1,5.1,0,0,1,2.218,1.336,5.557,5.557,0,0,1,1.277,2.355,12.862,12.862,0,0,1,.41,3.478,14.619,14.619,0,0,1-.395,3.66,6.215,6.215,0,0,1-1.185,2.446,4.545,4.545,0,0,1-1.945,1.367,7.839,7.839,0,0,1-2.7.425c-0.121,0-.29-0.012-0.5-0.031s-0.44-.046-0.683-0.076l-0.744-.091a6.434,6.434,0,0,1-.653-0.107v6.23Zm1.67-8.756a4.084,4.084,0,0,0,1.5-.258,2.419,2.419,0,0,0,1.093-.881,4.576,4.576,0,0,0,.668-1.67,8.951,8.951,0,0,0,.229-2.259,7.469,7.469,0,0,0-.229-2.067,4.371,4.371,0,0,0-.668-1.626,2.446,2.446,0,0,0-1.093-.866,4.1,4.1,0,0,0-1.5-.258h-1.67v9.884h1.67ZM450.633,22h-0.122l-2.066,8.658h4.223Zm-2.674,11.088-1.337,5.316h-3.8l5.469-21.264h4.558l5.469,21.264h-3.8l-1.337-5.316h-5.226ZM311.645,38.408H308V17.144h3.5V31.118h0.152l5.62-13.974h3.8V38.408H317.57V24.131h-0.153ZM474,45.037v5.877h-1V48.27h-1.5v2.645h-1V45.037h1V47.6H473V45.037h1Zm-13.1,5.877h-1V45.037h0.956V48.9H460.9l1.538-3.863h1.039v5.877h-0.956V46.968h-0.041Zm-9.82-.546a1.052,1.052,0,0,0,.785-0.26,1.488,1.488,0,0,0,0-1.663,1.052,1.052,0,0,0-.785-0.261h-0.665V47.514h0.582a0.889,0.889,0,0,0,.956-1.05,0.859,0.859,0,0,0-.241-0.646,0.986,0.986,0,0,0-.715-0.235h-1.081V45.121a3.033,3.033,0,0,1,.52-0.117,4.225,4.225,0,0,1,.644-0.051,3.1,3.1,0,0,1,.86.105,1.59,1.59,0,0,1,.6.3,1.208,1.208,0,0,1,.345.478,1.689,1.689,0,0,1,.111.625,1.3,1.3,0,0,1-.249.844,1.749,1.749,0,0,1-.623.482v0.034a1.331,1.331,0,0,1,.769.546,1.591,1.591,0,0,1,.27.907,1.651,1.651,0,0,1-.478,1.284,2.352,2.352,0,0,1-1.6.437,4.875,4.875,0,0,1-.715-0.05,3.08,3.08,0,0,1-.532-0.117V50.368h1.247Zm-9.471-3.988h-0.033l-0.566,2.393h1.155Zm-0.732,3.064-0.365,1.469h-1.039l1.5-5.877h1.246l1.5,5.877h-1.04L442.3,49.445h-1.43Zm-10.019-4.408h2.867v0.672h-1.87v5.205h-1V45.037Zm-8.682,1.344h-0.033l-0.566,2.393h1.156Zm-0.731,3.064-0.366,1.469h-1.039l1.5-5.877h1.247l1.5,5.877h-1.039l-0.366-1.469h-1.429Zm-11.89-4.408,1.313,3.988H410.9l1.313-3.988h1.081l0.332,5.877h-0.955l-0.225-3.979H412.41L411.338,50.2h-0.914l-1.073-3.266h-0.033l-0.224,3.979h-0.957l0.333-5.877h1.081ZM390,50.914h-1V45.037h0.957V48.9H390l1.539-3.863h1.038v5.877h-0.955V46.968h-0.042Zm0.79-7.052a0.867,0.867,0,0,0,.458-0.126,1.733,1.733,0,0,0,.332-0.252L392,43.9a1.379,1.379,0,0,1-.5.5,1.521,1.521,0,0,1-1.421,0,1.379,1.379,0,0,1-.5-0.5L390,43.484a1.775,1.775,0,0,0,.333.252,0.866,0.866,0,0,0,.457.126m-10.527,1.091a1.935,1.935,0,0,1,.786.155,1.452,1.452,0,0,1,.6.508,2.673,2.673,0,0,1,.386.932,7.5,7.5,0,0,1,0,2.855,2.673,2.673,0,0,1-.386.932,1.447,1.447,0,0,1-.6.508,2.083,2.083,0,0,1-1.579,0,1.447,1.447,0,0,1-.6-0.508,2.636,2.636,0,0,1-.382-0.932,7.725,7.725,0,0,1,0-2.855,2.636,2.636,0,0,1,.382-0.932,1.452,1.452,0,0,1,.6-0.508,1.952,1.952,0,0,1,.793-0.155m0,5.458A0.592,0.592,0,0,0,380.6,50.3a0.9,0.9,0,0,0,.291-0.386,2.964,2.964,0,0,0,.208-0.747,9.038,9.038,0,0,0,0-2.385,2.956,2.956,0,0,0-.208-0.747,0.91,0.91,0,0,0-.291-0.387,0.577,0.577,0,0,0-.673,0,0.927,0.927,0,0,0-.291.387,3,3,0,0,0-.208.747,9.038,9.038,0,0,0,0,2.385,3.007,3.007,0,0,0,.208.747,0.919,0.919,0,0,0,.291.386,0.594,0.594,0,0,0,.336.109m-10.609-2.9a0.841,0.841,0,0,0,.639-0.244,1.235,1.235,0,0,0,0-1.444,0.841,0.841,0,0,0-.639-0.244H369.28v1.931h0.375Zm-0.375.63v2.225h0.458a1.053,1.053,0,0,0,.785-0.26,1.158,1.158,0,0,0,.254-0.831,1.23,1.23,0,0,0-.254-0.869,1.042,1.042,0,0,0-.785-0.264H369.28Zm1.5-.361a1.513,1.513,0,0,1,.769.571,1.671,1.671,0,0,1,.27.966,1.594,1.594,0,0,1-.478,1.251,2.385,2.385,0,0,1-1.6.428,7.4,7.4,0,0,1-.806-0.038,3.926,3.926,0,0,1-.649-0.13v-5.71a3.937,3.937,0,0,1,.649-0.13,7.409,7.409,0,0,1,.806-0.037,1.983,1.983,0,0,1,1.383.411,1.478,1.478,0,0,1,.446,1.142,1.383,1.383,0,0,1-.208.722,1.327,1.327,0,0,1-.582.52v0.033Zm-11.234-2.829a1.935,1.935,0,0,1,.786.155,1.465,1.465,0,0,1,.6.508,2.692,2.692,0,0,1,.386.932,7.5,7.5,0,0,1,0,2.855,2.693,2.693,0,0,1-.386.932,1.459,1.459,0,0,1-.6.508,1.935,1.935,0,0,1-.786.155,1.96,1.96,0,0,1-.794-0.155,1.451,1.451,0,0,1-.6-0.508,2.655,2.655,0,0,1-.383-0.932,7.783,7.783,0,0,1,0-2.855,2.655,2.655,0,0,1,.383-0.932,1.456,1.456,0,0,1,.6-0.508,1.96,1.96,0,0,1,.794-0.155m0,5.458a0.6,0.6,0,0,0,.337-0.109,0.919,0.919,0,0,0,.291-0.386,2.968,2.968,0,0,0,.207-0.747,8.926,8.926,0,0,0,0-2.385,2.96,2.96,0,0,0-.207-0.747,0.927,0.927,0,0,0-.291-0.387,0.578,0.578,0,0,0-.674,0,0.926,0.926,0,0,0-.29.387,2.956,2.956,0,0,0-.208.747,9.038,9.038,0,0,0,0,2.385,2.964,2.964,0,0,0,.208.747,0.918,0.918,0,0,0,.29.386,0.6,0.6,0,0,0,.337.109m-10.859-5.374,0.79,2.183,0.79-2.183H351.3l-1.081,2.855,1.206,3.023h-1.039l-0.914-2.393-0.915,2.393H347.52l1.206-3.023-1.081-2.855h1.039ZM339.3,46.38h-0.033L338.7,48.773h1.156Zm-0.732,3.064L338.2,50.914H337.16l1.5-5.877H339.9l1.5,5.877H340.36l-0.366-1.469h-1.43Zm-9.853,1.469h-1V45.121a3.9,3.9,0,0,1,.648-0.13,7.422,7.422,0,0,1,.806-0.037,2.943,2.943,0,0,1,.885.117,1.4,1.4,0,0,1,.607.37,1.537,1.537,0,0,1,.349.65,3.582,3.582,0,0,1,.113.961,4.078,4.078,0,0,1-.108,1.012,1.737,1.737,0,0,1-.325.676,1.239,1.239,0,0,1-.532.378,2.11,2.11,0,0,1-.739.118,1.369,1.369,0,0,1-.138-0.009c-0.058,0-.12-0.012-0.187-0.021l-0.2-.025c-0.07-.008-0.129-0.018-0.179-0.029v1.763Zm0.457-2.351a1.1,1.1,0,0,0,.411-0.072,0.652,0.652,0,0,0,.3-0.244,1.263,1.263,0,0,0,.184-0.461,3.629,3.629,0,0,0,.062-0.735,3.393,3.393,0,0,0-.062-0.709,1.219,1.219,0,0,0-.184-0.449,0.663,0.663,0,0,0-.3-0.239,1.1,1.1,0,0,0-.411-0.072h-0.457v2.981h0.457ZM317.6,45.037h3.574v0.672h-1.288v5.205h-1V45.709H317.6V45.037ZM310.192,51a2.307,2.307,0,0,1-.847-0.143,1.345,1.345,0,0,1-.612-0.487,2.5,2.5,0,0,1-.369-0.928,8.652,8.652,0,0,1,0-2.931,2.59,2.59,0,0,1,.361-0.927,1.308,1.308,0,0,1,.586-0.487,2.088,2.088,0,0,1,.8-0.143,5.556,5.556,0,0,1,.79.051,3,3,0,0,1,.54.117v0.462h-1a1.071,1.071,0,0,0-.486.109,0.952,0.952,0,0,0-.383.377,2.239,2.239,0,0,0-.249.735,6.453,6.453,0,0,0-.087,1.171,6.228,6.228,0,0,0,.091,1.17,2.222,2.222,0,0,0,.258.735,0.943,0.943,0,0,0,.4.378,1.271,1.271,0,0,0,.536.109h1v0.462a3.048,3.048,0,0,1-.54.117,5.557,5.557,0,0,1-.79.05" transform="translate(-308 -17)"/>
</svg>
