<svg class="header__phone-svg" xmlns="http://www.w3.org/2000/svg" width="18" height="18" viewBox="0 0 18 18">
  <path id="phone" class="header__phone-svg1" d="M209.463,32.458a2.2,2.2,0,0,0-.972-0.678q-0.245-.141-0.691-0.384t-0.813-.448q-0.364-.2-0.684-0.4c-0.035-.025-0.141-0.1-0.32-0.224a3.644,3.644,0,0,0-.454-0.275,0.841,0.841,0,0,0-.365-0.089,1.06,1.06,0,0,0-.64.364,6.183,6.183,0,0,0-.7.793,7.658,7.658,0,0,1-.678.793,0.974,0.974,0,0,1-.588.364,0.852,0.852,0,0,1-.288-0.064A2.607,2.607,0,0,1,202,32.106c-0.06-.03-0.163-0.089-0.308-0.179s-0.226-.139-0.243-0.147a12.677,12.677,0,0,1-5.233-5.233q-0.013-.026-0.147-0.243c-0.09-.145-0.149-0.247-0.179-0.307s-0.066-.147-0.109-0.262a0.856,0.856,0,0,1-.064-0.288,0.976,0.976,0,0,1,.365-0.589,7.7,7.7,0,0,1,.793-0.678,6.175,6.175,0,0,0,.793-0.7,1.063,1.063,0,0,0,.365-0.64,0.834,0.834,0,0,0-.09-0.365,3.451,3.451,0,0,0-.275-0.454c-0.123-.179-0.2-0.286-0.224-0.32q-0.192-.32-0.4-0.685T196.6,20.2q-0.243-.448-0.384-0.691a2.2,2.2,0,0,0-.678-0.972,0.713,0.713,0,0,0-.269-0.038,4.214,4.214,0,0,0-.9.128,5.048,5.048,0,0,0-.876.269,3.425,3.425,0,0,0-1.356,1.561,4.736,4.736,0,0,0-.608,3.052,5.514,5.514,0,0,0,.16.736q0.114,0.41.185,0.608t0.263,0.71q0.19,0.512.23,0.627a11.522,11.522,0,0,0,1.062,2.239,18.948,18.948,0,0,0,2.757,3.384,18.952,18.952,0,0,0,3.384,2.757,11.56,11.56,0,0,0,2.24,1.062q0.114,0.039.627,0.231c0.341,0.128.577,0.215,0.71,0.262s0.334,0.108.607,0.185a5.574,5.574,0,0,0,.736.16,4.752,4.752,0,0,0,3.052-.608,3.432,3.432,0,0,0,1.561-1.356,5.121,5.121,0,0,0,.268-0.877,4.178,4.178,0,0,0,.128-0.9,0.711,0.711,0,0,0-.038-0.269h0Z" transform="translate(-191.5 -18.5)"/>
</svg>
