<svg class="icon__full-cross-svg" xmlns="http://www.w3.org/2000/svg" width="12.03" height="12" viewBox="0 0 12.03 12"><path class="icon__full-cross-svg1" d="M1152.76,374.026l5.07-5.1a0.527,0.527,0,0,0,0-.766,0.522,0.522,0,0,0-.76,0l-5.07,5.1-5.07-5.1a0.533,0.533,0,0,0-.77,0,0.527,0.527,0,0,0,0,.766l5.07,5.1-5.07,5.095a0.529,0.529,0,0,0,0,.768,0.666,0.666,0,0,0,.44.109c0.11,0,.33,0,0.33-0.109l5.07-5.1,5.07,5.1a0.666,0.666,0,0,0,.44.109c0.11,0,.32,0,0.32-0.109a0.529,0.529,0,0,0,0-.768Zm0,0" transform="translate(-1146 -368)"/>
</svg>
