<svg xmlns="http://www.w3.org/2000/svg" width="26" height="26" viewBox="0 0 26 26">
  <defs>
    <style>
      .cls-1 {
        fill: #fff;
        fill-rule: evenodd;
      }
    </style>
  </defs>
  <path id="Фигура_2_копия" data-name="Фигура 2 копия" class="cls-1" d="M1003.55,394.033a8.559,8.559,0,0,0,4.12-7.366,8.669,8.669,0,0,0-17.337,0,8.551,8.551,0,0,0,4.117,7.366A13.4,13.4,0,0,0,986,404h2.167a11.1,11.1,0,0,1,21.663,0H1012a13.06,13.06,0,0,0-8.45-9.967h0Zm-11.05-7.366a6.5,6.5,0,1,1,6.5,6.5,6.519,6.519,0,0,1-6.5-6.5h0Zm0,0" transform="translate(-986 -378)"/>
</svg>
