<svg xmlns="http://www.w3.org/2000/svg" width="65" height="76.625" viewBox="0 0 65 76.625">
  <defs>
    <style>
      .cls-1 {
        fill: none;
        stroke: #fff;
        stroke-width: 3px;
        fill-rule: evenodd;
      }
    </style>
  </defs>
  <path id="Фигура_584" data-name="Фигура 584" class="cls-1" d="M1340.23,494.268a53.347,53.347,0,0,1-26.37-10.445,3.09,3.09,0,0,0-3.72,0,53.421,53.421,0,0,1-26.37,10.445,3.1,3.1,0,0,0-2.77,3.093v20.631a34.273,34.273,0,0,0,14.69,28.147l14.55,10.109a3.094,3.094,0,0,0,3.53,0l14.54-10.112A34.271,34.271,0,0,0,1343,517.992V497.361A3.1,3.1,0,0,0,1340.23,494.268Z" transform="translate(-1279.5 -481.688)"/>
</svg>
