<svg xmlns="http://www.w3.org/2000/svg" width="18" height="15.968" viewBox="0 0 18 15.968">
  <defs>
    <style>
      .cls-1 {
        fill: #c2c2c2;
        fill-rule: evenodd;
      }
    </style>
  </defs>
  <path id="ред" class="cls-1" d="M1178.71,509.7l1-1a0.252,0.252,0,0,1,.43.178v4.54a1.5,1.5,0,0,1-1.5,1.5h-10.99a1.5,1.5,0,0,1-1.5-1.5V502.429a1.5,1.5,0,0,1,1.5-1.5h8.54a0.254,0.254,0,0,1,.18.428l-1,1a0.255,0.255,0,0,1-.18.072h-7.54v10.992h10.99v-3.544A0.276,0.276,0,0,1,1178.71,509.7Zm4.89-6.3-8.2,8.2-2.82.313a1.294,1.294,0,0,1-1.43-1.424l0.32-2.823,8.2-8.2a1.82,1.82,0,0,1,2.58,0l1.35,1.349a1.835,1.835,0,0,1,0,2.585h0Zm-3.08.965-1.82-1.814-5.8,5.805-0.23,2.039,2.04-.228Zm2.02-2.489-1.35-1.349a0.323,0.323,0,0,0-.46,0l-0.97.965,1.82,1.815,0.96-.965A0.327,0.327,0,0,0,1182.54,501.876Z" transform="translate(-1166.16 -498.938)"/>
</svg>
