<svg xmlns="http://www.w3.org/2000/svg" width="84" height="84" viewBox="0 0 84 84">
  <defs>
    <style>
      .cls-1 {
        fill: none;
        stroke: #fff;
        stroke-width: 3px;
        fill-rule: evenodd;
      }
    </style>
  </defs>
  <path id="Фигура_587" data-name="Фигура 587" class="cls-1" d="M958.5,483A37.5,37.5,0,1,0,996,520.5,37.5,37.5,0,0,0,958.5,483Zm29.544,60.6c-3.427-1.43-14.632-5.385-19.638-6.865-0.428-.135-0.5-0.155-0.5-1.934a10.252,10.252,0,0,1,1.193-4.2,21.492,21.492,0,0,0,1.667-5.7,12.845,12.845,0,0,0,2.459-5.938c0.584-2.922.311-3.986-.076-4.982-0.041-.106-0.082-0.208-0.114-0.314a32.643,32.643,0,0,1,.554-7.008,12.826,12.826,0,0,0-2.7-9.258c-1.647-2.107-4.8-4.692-10.559-5.053l-3.16,0c-5.662.358-8.816,2.943-10.463,5.05a12.842,12.842,0,0,0-2.7,9.258,32.854,32.854,0,0,1,.56,7,2.326,2.326,0,0,1-.118.326c-0.384,1-.659,2.06-0.073,4.982a12.78,12.78,0,0,0,2.459,5.938,21.306,21.306,0,0,0,1.668,5.7,10.143,10.143,0,0,1,.685,4.261c0,1.779-.067,1.8-0.466,1.926-5.178,1.529-16.44,5.792-19.515,7.137" transform="translate(-916.5 -478.5)"/>
</svg>
