<svg xmlns="http://www.w3.org/2000/svg" width="80" height="80" viewBox="0 0 80 80">
  <defs>
    <style>
      .cls-1 {
        fill: #fff;
        fill-rule: evenodd;
      }
    </style>
  </defs>
  <path id="Фигура_583" data-name="Фигура 583" class="cls-1" d="M653.547,522.666a1.338,1.338,0,0,0-1.048-.322l-0.333.041a17.63,17.63,0,0,1-15.5-5.912V495.667c0-.028-0.014-0.053-0.016-0.081a1.327,1.327,0,0,0-.069-0.347c-0.015-.042-0.025-0.082-0.044-0.124a1.32,1.32,0,0,0-.267-0.39l-13.333-13.333a1.307,1.307,0,0,0-.387-0.267,1.25,1.25,0,0,0-.134-0.047,1.339,1.339,0,0,0-.332-0.066A0.571,0.571,0,0,1,622,481H575.334A1.333,1.333,0,0,0,574,482.334v77.331A1.333,1.333,0,0,0,575.334,561h60a1.33,1.33,0,0,0,.759-0.238l9.291-6.429A20,20,0,0,0,654,537.886v-14.22A1.335,1.335,0,0,0,653.547,522.666Zm-21.434-28.332h-8.781v-8.781Zm-55.446-10.666h44v12A1.333,1.333,0,0,0,622,497h12v19.473a17.628,17.628,0,0,1-15.5,5.912l-0.333-.041a1.312,1.312,0,0,0-.166.014v-0.025H604.666V525h12v2.666H595.333v2.667h21.333V537h-16v2.667h16.108a19.667,19.667,0,0,0,.411,2.666H582V545h35.974a19.948,19.948,0,0,0,1.276,2.667H608.666v2.666h12.389a19.931,19.931,0,0,0,4.227,4l5.784,4h-54.4V483.668Zm74.664,54.218a17.332,17.332,0,0,1-7.466,14.25l-8.533,5.908-8.533-5.908a17.332,17.332,0,0,1-7.466-14.25V525.144a20.266,20.266,0,0,0,16-6.144,20.306,20.306,0,0,0,16,6.149v12.737Zm-21.865,2.047-1.6,2.133,5.333,4a1.334,1.334,0,0,0,1.852-.248l9.333-12-2.1-1.637-8.533,10.965ZM594,487.667h21.333v2.667H594v-2.667ZM594,493h21.333v2.666H594V493Zm-12,8h20v2.667H582V501Zm0,5.334h26.665V509H582v-2.666Zm0,5.333h25.332v2.666H582v-2.666ZM604.666,501h24v2.667h-24V501Zm6.667,5.334h17.333V509H611.333v-2.666Zm0,5.333H610v2.666h18.666v-2.666H611.333ZM582,517h46.665v2.666H582V517Zm0,5.333h20V525H582v-2.667ZM582,537h16v2.667H582V537Zm0-9.333h10.666v2.667H582v-2.667Zm0,20h24v2.666H582v-2.666Z" transform="translate(-574 -481)"/>
</svg>
